HIERARCHY
ROOT hip
{
  OFFSET 0 0 0
  CHANNELS 6 Xposition Yposition Zposition Zrotation Yrotation Xrotation
  JOINT abdomen
  {
    OFFSET 0 20.6881 -0.73152
    CHANNELS 3 Zrotation Xrotation Yrotation
    JOINT chest
    {
      OFFSET 0 11.7043 -0.48768
      CHANNELS 3 Zrotation Xrotation Yrotation
      JOINT neck
      {
        OFFSET 0 22.1894 -2.19456
        CHANNELS 3 Zrotation Xrotation Yrotation
        JOINT head
        {
          OFFSET -0.24384 7.07133 1.2192
          CHANNELS 3 Zrotation Xrotation Yrotation
          JOINT leftEye
          {
            OFFSET 4.14528 8.04674 8.04672
            CHANNELS 3 Zrotation Xrotation Yrotation
            End Site
            {
              OFFSET 1 0 0
            }
          }
          JOINT rightEye
          {
            OFFSET -3.6576 8.04674 8.04672
            CHANNELS 3 Zrotation Xrotation Yrotation
            End Site
            {
              OFFSET 1 0 0
            }
          }
        }
      }
      JOINT rCollar
      {
        OFFSET -2.68224 19.2634 -4.8768
        CHANNELS 3 Zrotation Xrotation Yrotation
        JOINT rShldr
        {
          OFFSET -8.77824 -1.95073 1.46304
          CHANNELS 3 Zrotation Xrotation Yrotation
          JOINT rForeArm
          {
            OFFSET -28.1742 -1.7115 0.48768
            CHANNELS 3 Zrotation Xrotation Yrotation
            JOINT rHand
            {
              OFFSET -22.5879 0.773209 7.07136
              CHANNELS 3 Zrotation Xrotation Yrotation
              JOINT rThumb1
              {
                OFFSET -1.2192 -0.487915 3.41376
                CHANNELS 3 Zrotation Xrotation Yrotation
                JOINT rThumb2
                {
                  OFFSET -3.37035 -0.52449 3.41376
                  CHANNELS 3 Zrotation Xrotation Yrotation
                  End Site
                  {
                    OFFSET -1.78271 -1.18214 1.43049
                  }
                }
              }
              JOINT rIndex1
              {
                OFFSET -7.75947 0.938293 5.60832
                CHANNELS 3 Zrotation Xrotation Yrotation
                JOINT rIndex2
                {
                  OFFSET -2.54057 -0.884171 1.56538
                  CHANNELS 3 Zrotation Xrotation Yrotation
                  End Site
                  {
                    OFFSET -1.62519 -0.234802 1.16502
                  }
                }
              }
              JOINT rMid1
              {
                OFFSET -8.24714 1.18213 3.41376
                CHANNELS 3 Zrotation Xrotation Yrotation
                JOINT rMid2
                {
                  OFFSET -3.10165 -0.590103 1.0647
                  CHANNELS 3 Zrotation Xrotation Yrotation
                  End Site
                  {
                    OFFSET -2.48547 -0.328903 0.83742
                  }
                }
              }
              JOINT rRing1
              {
                OFFSET -8.82822 0.546677 1.51678
                CHANNELS 3 Zrotation Xrotation Yrotation
                JOINT rRing2
                {
                  OFFSET -2.60934 -0.819778 -0.0198488
                  CHANNELS 3 Zrotation Xrotation Yrotation
                  End Site
                  {
                    OFFSET -2.33842 -0.294052 0.168128
                  }
                }
              }
              JOINT rPinky1
              {
                OFFSET -8.27202 -0.0477905 -0.4584
                CHANNELS 3 Zrotation Xrotation Yrotation
                JOINT rPinky2
                {
                  OFFSET -1.82734 -0.647385 -0.700984
                  CHANNELS 3 Zrotation Xrotation Yrotation
                  End Site
                  {
                    OFFSET -1.69225 -0.51767 -0.607171
                  }
                }
              }
            }
          }
        }
      }
      JOINT lCollar
      {
        OFFSET 2.68224 19.2634 -4.8768
        CHANNELS 3 Zrotation Xrotation Yrotation
        JOINT lShldr
        {
          OFFSET 8.77824 -1.95073 1.46304
          CHANNELS 3 Zrotation Xrotation Yrotation
          JOINT lForeArm
          {
            OFFSET 28.1742 -1.7115 0.48768
            CHANNELS 3 Zrotation Xrotation Yrotation
            JOINT lHand
            {
              OFFSET 22.5879 0.773209 7.07136
              CHANNELS 3 Zrotation Xrotation Yrotation
              JOINT lThumb1
              {
                OFFSET 1.2192 -0.487915 3.41376
                CHANNELS 3 Zrotation Xrotation Yrotation
                JOINT lThumb2
                {
                  OFFSET 3.37035 -0.52449 3.41376
                  CHANNELS 3 Zrotation Xrotation Yrotation
                  End Site
                  {
                    OFFSET 1.78271 -1.18214 1.43049
                  }
                }
              }
              JOINT lIndex1
              {
                OFFSET 7.75947 0.938293 5.60832
                CHANNELS 3 Zrotation Xrotation Yrotation
                JOINT lIndex2
                {
                  OFFSET 2.54057 -0.884171 1.56538
                  CHANNELS 3 Zrotation Xrotation Yrotation
                  End Site
                  {
                    OFFSET 1.62519 -0.234802 1.16502
                  }
                }
              }
              JOINT lMid1
              {
                OFFSET 8.24714 1.18213 3.41376
                CHANNELS 3 Zrotation Xrotation Yrotation
                JOINT lMid2
                {
                  OFFSET 3.10165 -0.590103 1.0647
                  CHANNELS 3 Zrotation Xrotation Yrotation
                  End Site
                  {
                    OFFSET 2.48547 -0.328903 0.83742
                  }
                }
              }
              JOINT lRing1
              {
                OFFSET 8.82822 0.546677 1.51678
                CHANNELS 3 Zrotation Xrotation Yrotation
                JOINT lRing2
                {
                  OFFSET 2.60934 -0.819778 -0.0198488
                  CHANNELS 3 Zrotation Xrotation Yrotation
                  End Site
                  {
                    OFFSET 2.33842 -0.294052 0.168128
                  }
                }
              }
              JOINT lPinky1
              {
                OFFSET 8.27202 -0.0477905 -0.4584
                CHANNELS 3 Zrotation Xrotation Yrotation
                JOINT lPinky2
                {
                  OFFSET 1.82734 -0.647385 -0.700984
                  CHANNELS 3 Zrotation Xrotation Yrotation
                  End Site
                  {
                    OFFSET 1.69225 -0.51767 -0.607171
                  }
                }
              }
            }
          }
        }
      }
    }
  }
  JOINT rButtock
  {
    OFFSET -8.77824 4.35084 1.2192
    CHANNELS 3 Zrotation Xrotation Yrotation
    JOINT rThigh
    {
      OFFSET 0 -1.70687 -2.19456
      CHANNELS 3 Zrotation Xrotation Yrotation
      JOINT rShin
      {
        OFFSET 0 -36.8199 0.73152
        CHANNELS 3 Zrotation Xrotation Yrotation
        JOINT rFoot
        {
          OFFSET 0.73152 -45.1104 -5.12064
          CHANNELS 3 Zrotation Xrotation Yrotation
          End Site
          {
            OFFSET -1.1221 -3.69964 12.103
          }
        }
      }
    }
  }
  JOINT lButtock
  {
    OFFSET 8.77824 4.35084 1.2192
    CHANNELS 3 Zrotation Xrotation Yrotation
    JOINT lThigh
    {
      OFFSET 0 -1.70687 -2.19456
      CHANNELS 3 Zrotation Xrotation Yrotation
      JOINT lShin
      {
        OFFSET 0 -36.8199 0.73152
        CHANNELS 3 Zrotation Xrotation Yrotation
        JOINT lFoot
        {
          OFFSET -0.73152 -45.1104 -5.12064
          CHANNELS 3 Zrotation Xrotation Yrotation
          End Site
          {
            OFFSET 1.1221 -3.69964 12.103
          }
        }
      }
    }
  }
}
MOTION
Frames:	5
Frame Time:	0.00833333
-71.2781 84.8839 -62.1625 0.0 0.0 0.0 -0.194077 -0.000752048 -0.00553942 -0.0535363 -0.00112971 -0.00927448 -1.04386e-15 0.0 3.41661e-17 -3.18366e-15 3.18055e-15 1.05604e-16 -0.0 0.0 0.0 -0.0 0.0 0.0 -4.98301e-16 3.88251e-19 1.49089e-16 -8.78011e-15 1.2424e-16 1.39149e-15 -1.90138e-13 5.9039e-14 -3.18055e-15 -2.20327e-12 -5.01434e-14 7.63333e-14 -5.19473e-12 1.78638e-14 1.62208e-13 -8.97553e-12 2.8625e-14 2.79094e-13 -5.18947e-12 1.90833e-14 1.59028e-13 7.73091 5.47488 0.417314 -5.19449e-12 1.77912e-14 1.65389e-13 2.90554 0.965183 0.102902 -5.18352e-12 1.82882e-14 1.62208e-13 10.2786 0.731801 0.0259123 -5.19464e-12 1.74931e-14 1.68569e-13 2.22167 -0.733487 -0.20892 -5.95048e-16 0.0 -1.49089e-16 -1.34883e-14 2.42269e-16 -7.95139e-16 -1.95902e-13 -5.4467e-14 3.49861e-14 -2.2006e-12 6.78353e-14 4.13472e-14 -5.19617e-12 2.28645e-14 1.59028e-13 -8.97195e-12 3.81667e-14 2.88635e-13 -5.201e-12 2.62396e-14 1.74931e-13 -7.73091 5.47488 -0.417314 -5.19762e-12 2.34566e-14 1.59028e-13 -2.90554 0.965183 -0.102902 -5.20499e-12 2.31584e-14 1.63003e-13 -10.2786 0.731801 -0.0259123 -5.19365e-12 2.26615e-14 1.55847e-13 -2.22167 -0.733487 0.20892 -2.03217e-16 0.0 -3.88251e-19 0.355852 -2.82714 -0.0340694 -0.00665505 -0.431854 -0.0584472 -0.502543 3.25829 0.123799 2.03217e-16 0.0 3.88251e-19 -0.651363 -3.58303 0.0525572 0.00446003 0.937454 0.0381205 0.504971 2.64491 -0.111592
-70.9652 83.4401 -62.5398 0.7003 0.9288 -1.7102 0.0666385 3.46206 -0.603938 0.707769 -1.36834 -0.105796 -3.45411 -1.50468 -1.5379 4.21462 2.40411 -2.06897 -0.0 0.0 0.0 -0.0 0.0 0.0 4.03012e-15 5.09385e-15 1.68074e-15 22.4719 1.74156 -1.49907 -3.48683 -1.46203 5.57171 0.0215852 3.30213 0.46141 -1.02646e-10 1.84391e-11 9.67803e-11 -1.76547e-10 3.15004e-11 1.68466e-10 -1.02643e-10 1.84405e-11 9.67744e-11 7.73091 5.47488 0.417314 -1.02647e-10 1.84405e-11 9.67854e-11 2.90554 0.965183 0.102902 -1.02638e-10 1.84413e-11 9.67833e-11 10.2786 0.731801 0.0259123 -1.02648e-10 1.84411e-11 9.67905e-11 2.22167 -0.733487 -0.20892 3.99297e-15 5.09441e-15 1.38489e-15 -21.6546 7.42588 -0.724507 4.94539 -2.41326 -7.53534 -0.0101762 2.24005 -0.313953 -6.34185e-11 -1.54466e-10 -6.05686e-11 -1.10119e-10 -2.6745e-10 -1.04109e-10 -6.3422e-11 -1.54462e-10 -6.05523e-11 -7.73091 5.47488 -0.417314 -6.34189e-11 -1.54464e-10 -6.05686e-11 -2.90554 0.965183 -0.102902 -6.3427e-11 -1.54465e-10 -6.05667e-11 -10.2786 0.731801 -0.0259123 -6.3417e-11 -1.54466e-10 -6.05714e-11 -2.22167 -0.733487 0.20892 -2.03217e-16 0.0 -3.88251e-19 1.60752 -7.35081 0.538835 -0.0374175 7.39414 -0.0235408 -0.489607 1.46307 0.0202482 2.03217e-16 0.0 3.88251e-19 -0.349705 -4.6249 -0.546784 -0.00391715 15.8273 -0.170627 0.606109 8.086 -2.94074
-71.096 83.4643 -61.7029 0.5052 0.8474 -1.854 0.411157 7.12247 -1.25543 1.51199 -2.81403 -0.211555 -7.19355 -3.10452 -3.16635 8.86331 4.93364 -4.26394 -0.0 0.0 0.0 -0.0 0.0 0.0 9.11652e-15 1.05351e-14 3.43835e-15 46.3275 3.55483 -3.09973 -6.85819 -2.95698 11.4621 -0.0144073 6.85307 0.962917 -2.14287e-10 3.72253e-11 2.11792e-10 -3.68494e-10 6.35405e-11 3.68609e-10 -2.14286e-10 3.72269e-11 2.11783e-10 7.73091 5.47488 0.417314 -2.14289e-10 3.72283e-11 2.11799e-10 2.90554 0.965183 0.102902 -2.14282e-10 3.72294e-11 2.11798e-10 10.2786 0.731801 0.0259123 -2.14291e-10 3.72297e-11 2.11807e-10 2.22167 -0.733487 -0.20892 9.14741e-15 1.05368e-14 3.14639e-15 -44.3238 15.2962 -1.55137 9.48704 -4.82337 -15.5402 0.00587874 4.6191 -0.649021 -1.3113e-10 -3.35035e-10 -1.33821e-10 -2.2777e-10 -5.80111e-10 -2.30084e-10 -1.31132e-10 -3.3503e-10 -1.33805e-10 -7.73091 5.47488 -0.417314 -1.31129e-10 -3.35031e-10 -1.33821e-10 -2.90554 0.965183 -0.102902 -1.31138e-10 -3.35032e-10 -1.33822e-10 -10.2786 0.731801 -0.0259123 -1.3113e-10 -3.35034e-10 -1.33824e-10 -2.22167 -0.733487 0.20892 -2.03217e-16 0.0 -3.88251e-19 3.01542 -12.1783 1.16215 -0.0809603 15.6793 0.0139777 -0.482158 -0.409876 -0.0840863 2.03217e-16 0.0 3.88251e-19 -0.0716143 -5.6594 -1.19715 0.121905 31.5149 -0.443235 1.32714 13.8619 -6.08897
-71.2173 83.4794 -60.8354 0.3657 0.8649 -1.9745 0.808105 10.3831 -1.82736 2.21653 -4.10271 -0.299515 -10.605 -4.50101 -4.62642 13.1671 7.17457 -6.25058 -0.0 0.0 0.0 -0.0 0.0 0.0 1.30869e-14 1.52808e-14 4.74404e-15 67.6899 5.21036 -4.51382 -9.61894 -4.22048 16.7565 -0.0968371 9.9038 1.40284 -2.97548e-10 5.52816e-11 2.90017e-10 -5.11689e-10 9.44439e-11 5.0484e-10 -2.97549e-10 5.52834e-11 2.90005e-10 7.73091 5.47488 0.417314 -2.97552e-10 5.52859e-11 2.90025e-10 2.90554 0.965183 0.102902 -2.97546e-10 5.52874e-11 2.90025e-10 10.2786 0.731801 0.0259123 -2.97555e-10 5.52882e-11 2.90034e-10 2.22167 -0.733487 -0.20892 1.3169e-14 1.52832e-14 4.45285e-15 -64.3621 22.2628 -2.32899 12.9758 -6.73997 -22.7518 0.0435479 6.71935 -0.947648 -1.79863e-10 -4.63444e-10 -1.82024e-10 -3.12413e-10 -8.02425e-10 -3.12905e-10 -1.79864e-10 -4.6344e-10 -1.82007e-10 -7.73091 5.47488 -0.417314 -1.79861e-10 -4.6344e-10 -1.82024e-10 -2.90554 0.965183 -0.102902 -1.79871e-10 -4.6344e-10 -1.82026e-10 -10.2786 0.731801 -0.0259123 -1.79864e-10 -4.63443e-10 -1.82026e-10 -2.22167 -0.733487 0.20892 -2.03217e-16 0.0 -3.88251e-19 4.39244 -16.392 1.7421 -0.128846 23.0461 0.0509197 -0.483185 -2.12737 -0.186602 2.03217e-16 0.0 3.88251e-19 0.187803 -6.70616 -1.75191 0.419328 45.6042 -0.812901 2.49409 18.7826 -8.99411
-71.3235 83.4953 -59.9974 0.3049 0.5958 -2.0169 1.17277 12.649 -2.17385 2.68247 -4.99891 -0.342278 -13.022 -5.40176 -5.65299 16.2409 8.72955 -7.67516 -0.0 0.0 0.0 -0.0 0.0 0.0 1.42674e-14 1.82874e-14 4.91992e-15 82.6281 6.48527 -5.44647 -11.4352 -5.06034 20.5219 -0.171094 11.7068 1.6688 -3.09862e-10 7.15132e-11 2.76273e-10 -5.33003e-10 1.22505e-10 4.81293e-10 -3.09864e-10 7.15152e-11 2.7626e-10 7.73091 5.47488 0.417314 -3.09867e-10 7.15182e-11 2.76282e-10 2.90554 0.965183 0.102902 -3.09863e-10 7.15198e-11 2.76282e-10 10.2786 0.731801 0.0259123 -3.0987e-10 7.15211e-11 2.76292e-10 2.22167 -0.733487 -0.20892 1.43585e-14 1.82897e-14 4.62174e-15 -78.291 26.9861 -2.8242 15.1227 -7.89703 -27.8417 0.081625 8.12342 -1.14946 -1.81152e-10 -4.61457e-10 -1.67599e-10 -3.14535e-10 -7.98869e-10 -2.87847e-10 -1.81152e-10 -4.61452e-10 -1.67583e-10 -7.73091 5.47488 -0.417314 -1.81149e-10 -4.61453e-10 -1.67599e-10 -2.90554 0.965183 -0.102902 -1.81158e-10 -4.61454e-10 -1.67603e-10 -10.2786 0.731801 -0.0259123 -1.81152e-10 -4.61456e-10 -1.67603e-10 -2.22167 -0.733487 0.20892 -2.03217e-16 0.0 -3.88251e-19 5.48416 -19.0767 2.15945 -0.166461 28.1173 0.0813429 -0.493708 -3.45623 -0.28454 2.03217e-16 0.0 3.88251e-19 0.443596 -7.78573 -2.06332 0.835513 55.7001 -1.24653 3.47846 21.7536 -10.8991
